<svg width="615" height="531" viewBox="0 0 615 531" fill="none" xmlns="http://www.w3.org/2000/svg">
<path d="M96.0375 202.087L159.31 220.532L120.572 262.035L99.9113 254.13L76.6684 246.225L57.945 239.637L46.9691 228.438L36.639 212.627L33.4108 204.722L36.639 184.299L42.4497 161.901L48.2604 146.09L53.4255 133.573L60.5275 117.763L68.9208 101.952L78.6053 84.165L91.518 65.7192L105.722 47.9321L119.28 34.0978L136.713 20.2634L153.499 9.72291L167.703 3.13512L176.742 0.5H180.616L165.766 18.287L148.98 42.0031L138.004 61.1077L132.193 76.2596L131.547 84.165L153.499 69.0131L167.703 50.5672L185.781 24.2161V75.6009L179.325 94.0467L159.31 133.573L138.649 161.901L120.572 181.006L96.0375 202.087Z" fill="#1B1919"/>
<path d="M6.9397 260.059L0.483337 235.684L30.1826 275.211L106.368 294.974L216.126 182.323H229.684L218.063 142.796H235.495L247.762 181.006H307.161V408.285H261.32L142.523 327.255L106.368 315.397L21.1437 287.069L6.9397 260.059Z" fill="#1B1919"/>
<path d="M177.388 364.805L147.043 343.724L57.945 327.913L12.1048 322.643L55.3624 348.336L177.388 364.805Z" fill="#1B1919"/>
<path d="M216.771 392.474L194.82 376.663L61.1731 377.322L15.9786 437.271L6.9397 462.963V474.163L30.1826 445.176L39.2215 441.882L46.9691 435.295L54.7168 421.46L69.5664 395.768L216.771 392.474Z" fill="#1B1919"/>
<path d="M249.053 414.872L230.33 400.379L114.761 422.778L105.076 453.74L127.028 509.737L152.853 529.5L127.028 441.882L170.286 432.001L193.529 426.73L249.053 414.872Z" fill="#1B1919"/>
<path d="M518.929 202.087L455.657 220.532L494.395 262.035L515.055 254.13L538.298 246.225L557.022 239.637L567.998 228.438L578.328 212.627L581.556 204.722L578.328 184.299L572.517 161.901L566.706 146.09L561.541 133.573L554.439 117.763L546.046 101.952L536.361 84.165L523.449 65.7192L509.245 47.9321L495.686 34.0978L478.254 20.2634L461.468 9.72291L447.264 3.13512L438.225 0.5H434.351L449.2 18.287L465.987 42.0031L476.963 61.1077L482.774 76.2596L483.419 84.165L461.468 69.0131L447.264 50.5672L429.186 24.2161V75.6009L435.642 94.0467L455.657 133.573L476.317 161.901L494.395 181.006L518.929 202.087Z" fill="#1B1919"/>
<path d="M608.027 260.059L614.483 235.684L584.784 275.211L508.599 294.974L398.841 182.323H385.283L396.904 142.796H379.472L367.205 181.006H307.806V408.285H353.646L472.443 327.255L508.599 315.397L593.823 287.069L608.027 260.059Z" fill="#1B1919"/>
<path d="M437.579 364.805L467.924 343.724L557.022 327.913L602.862 322.643L559.604 348.336L437.579 364.805Z" fill="#1B1919"/>
<path d="M398.195 392.474L420.147 376.663L553.794 377.322L598.988 437.271L608.027 462.963V474.163L584.784 445.176L575.745 441.882L567.998 435.295L560.25 421.46L545.4 395.768L398.195 392.474Z" fill="#1B1919"/>
<path d="M365.913 414.872L384.637 400.379L500.206 422.778L509.89 453.74L487.939 509.737L462.113 529.5L487.939 441.882L444.681 432.001L421.438 426.73L365.913 414.872Z" fill="#1B1919"/>
<path d="M96.0375 202.087L159.31 220.532L120.572 262.035L99.9113 254.13L76.6684 246.225L57.945 239.637L46.9691 228.438L36.639 212.627L33.4108 204.722L36.639 184.299L42.4497 161.901L48.2604 146.09L53.4255 133.573L60.5275 117.763L68.9208 101.952L78.6053 84.165L91.518 65.7192L105.722 47.9321L119.28 34.0978L136.713 20.2634L153.499 9.72291L167.703 3.13512L176.742 0.5H180.616L165.766 18.287L148.98 42.0031L138.004 61.1077L132.193 76.2596L131.547 84.165L153.499 69.0131L167.703 50.5672L185.781 24.2161V75.6009L179.325 94.0467L159.31 133.573L138.649 161.901L120.572 181.006L96.0375 202.087Z" stroke="#1B1919"/>
<path d="M6.9397 260.059L0.483337 235.684L30.1826 275.211L106.368 294.974L216.126 182.323H229.684L218.063 142.796H235.495L247.762 181.006H307.161V408.285H261.32L142.523 327.255L106.368 315.397L21.1437 287.069L6.9397 260.059Z" stroke="#1B1919"/>
<path d="M177.388 364.805L147.043 343.724L57.945 327.913L12.1048 322.643L55.3624 348.336L177.388 364.805Z" stroke="#1B1919"/>
<path d="M216.771 392.474L194.82 376.663L61.1731 377.322L15.9786 437.271L6.9397 462.963V474.163L30.1826 445.176L39.2215 441.882L46.9691 435.295L54.7168 421.46L69.5664 395.768L216.771 392.474Z" stroke="#1B1919"/>
<path d="M249.053 414.872L230.33 400.379L114.761 422.778L105.076 453.74L127.028 509.737L152.853 529.5L127.028 441.882L170.286 432.001L193.529 426.73L249.053 414.872Z" stroke="#1B1919"/>
<path d="M518.929 202.087L455.657 220.532L494.395 262.035L515.055 254.13L538.298 246.225L557.022 239.637L567.998 228.438L578.328 212.627L581.556 204.722L578.328 184.299L572.517 161.901L566.706 146.09L561.541 133.573L554.439 117.763L546.046 101.952L536.361 84.165L523.449 65.7192L509.245 47.9321L495.686 34.0978L478.254 20.2634L461.468 9.72291L447.264 3.13512L438.225 0.5H434.351L449.2 18.287L465.987 42.0031L476.963 61.1077L482.774 76.2596L483.419 84.165L461.468 69.0131L447.264 50.5672L429.186 24.2161V75.6009L435.642 94.0467L455.657 133.573L476.317 161.901L494.395 181.006L518.929 202.087Z" stroke="#1B1919"/>
<path d="M608.027 260.059L614.483 235.684L584.784 275.211L508.599 294.974L398.841 182.323H385.283L396.904 142.796H379.472L367.205 181.006H307.806V408.285H353.646L472.443 327.255L508.599 315.397L593.823 287.069L608.027 260.059Z" stroke="#1B1919"/>
<path d="M437.579 364.805L467.924 343.724L557.022 327.913L602.862 322.643L559.604 348.336L437.579 364.805Z" stroke="#1B1919"/>
<path d="M398.195 392.474L420.147 376.663L553.794 377.322L598.988 437.271L608.027 462.963V474.163L584.784 445.176L575.745 441.882L567.998 435.295L560.25 421.46L545.4 395.768L398.195 392.474Z" stroke="#1B1919"/>
<path d="M365.913 414.872L384.637 400.379L500.206 422.778L509.89 453.74L487.939 509.737L462.113 529.5L487.939 441.882L444.681 432.001L421.438 426.73L365.913 414.872Z" stroke="#1B1919"/>
</svg>
