<svg width="2836" height="531" viewBox="0 0 2836 531" fill="none" xmlns="http://www.w3.org/2000/svg">
<path d="M96.0375 202.087L159.31 220.532L120.572 262.035L99.9113 254.13L76.6684 246.225L57.945 239.637L46.9691 228.438L36.639 212.627L33.4108 204.722L36.639 184.299L42.4497 161.901L48.2604 146.09L53.4255 133.573L60.5275 117.763L68.9208 101.952L78.6053 84.165L91.518 65.7192L105.722 47.9321L119.28 34.0978L136.713 20.2634L153.499 9.72291L167.703 3.13512L176.742 0.5H180.616L165.766 18.287L148.98 42.0031L138.004 61.1077L132.193 76.2596L131.547 84.165L153.499 69.0131L167.703 50.5672L185.781 24.2161V75.6009L179.325 94.0467L159.31 133.573L138.649 161.901L120.572 181.006L96.0375 202.087Z" fill="#1B1919"/>
<path d="M6.9397 260.059L0.483337 235.684L30.1826 275.211L106.368 294.974L216.126 182.323H229.684L218.063 142.796H235.495L247.762 181.006H307.161V408.285H261.32L142.523 327.255L106.368 315.397L21.1437 287.069L6.9397 260.059Z" fill="#1B1919"/>
<path d="M177.388 364.805L147.043 343.724L57.945 327.913L12.1048 322.643L55.3624 348.336L177.388 364.805Z" fill="#1B1919"/>
<path d="M216.771 392.474L194.82 376.663L61.1731 377.322L15.9786 437.271L6.9397 462.963V474.163L30.1826 445.176L39.2215 441.882L46.9691 435.295L54.7168 421.46L69.5664 395.768L216.771 392.474Z" fill="#1B1919"/>
<path d="M249.053 414.872L230.33 400.379L114.761 422.778L105.076 453.74L127.028 509.737L152.853 529.5L127.028 441.882L170.286 432.001L193.529 426.73L249.053 414.872Z" fill="#1B1919"/>
<path d="M518.929 202.087L455.657 220.532L494.395 262.035L515.055 254.13L538.298 246.225L557.022 239.637L567.998 228.438L578.328 212.627L581.556 204.722L578.328 184.299L572.517 161.901L566.706 146.09L561.541 133.573L554.439 117.763L546.046 101.952L536.361 84.165L523.449 65.7192L509.245 47.9321L495.686 34.0978L478.254 20.2634L461.468 9.72291L447.264 3.13512L438.225 0.5H434.351L449.2 18.287L465.987 42.0031L476.963 61.1077L482.774 76.2596L483.419 84.165L461.468 69.0131L447.264 50.5672L429.186 24.2161V75.6009L435.642 94.0467L455.657 133.573L476.317 161.901L494.395 181.006L518.929 202.087Z" fill="#1B1919"/>
<path d="M608.027 260.059L614.483 235.684L584.784 275.211L508.599 294.974L398.841 182.323H385.283L396.904 142.796H379.472L367.205 181.006H307.806V408.285H353.646L472.443 327.255L508.599 315.397L593.823 287.069L608.027 260.059Z" fill="#1B1919"/>
<path d="M437.579 364.805L467.924 343.724L557.022 327.913L602.862 322.643L559.604 348.336L437.579 364.805Z" fill="#1B1919"/>
<path d="M398.195 392.474L420.147 376.663L553.794 377.322L598.988 437.271L608.027 462.963V474.163L584.784 445.176L575.745 441.882L567.998 435.295L560.25 421.46L545.4 395.768L398.195 392.474Z" fill="#1B1919"/>
<path d="M365.913 414.872L384.637 400.379L500.206 422.778L509.89 453.74L487.939 509.737L462.113 529.5L487.939 441.882L444.681 432.001L421.438 426.73L365.913 414.872Z" fill="#1B1919"/>
<path d="M96.0375 202.087L159.31 220.532L120.572 262.035L99.9113 254.13L76.6684 246.225L57.945 239.637L46.9691 228.438L36.639 212.627L33.4108 204.722L36.639 184.299L42.4497 161.901L48.2604 146.09L53.4255 133.573L60.5275 117.763L68.9208 101.952L78.6053 84.165L91.518 65.7192L105.722 47.9321L119.28 34.0978L136.713 20.2634L153.499 9.72291L167.703 3.13512L176.742 0.5H180.616L165.766 18.287L148.98 42.0031L138.004 61.1077L132.193 76.2596L131.547 84.165L153.499 69.0131L167.703 50.5672L185.781 24.2161V75.6009L179.325 94.0467L159.31 133.573L138.649 161.901L120.572 181.006L96.0375 202.087Z" stroke="#1B1919"/>
<path d="M6.9397 260.059L0.483337 235.684L30.1826 275.211L106.368 294.974L216.126 182.323H229.684L218.063 142.796H235.495L247.762 181.006H307.161V408.285H261.32L142.523 327.255L106.368 315.397L21.1437 287.069L6.9397 260.059Z" stroke="#1B1919"/>
<path d="M177.388 364.805L147.043 343.724L57.945 327.913L12.1048 322.643L55.3624 348.336L177.388 364.805Z" stroke="#1B1919"/>
<path d="M216.771 392.474L194.82 376.663L61.1731 377.322L15.9786 437.271L6.9397 462.963V474.163L30.1826 445.176L39.2215 441.882L46.9691 435.295L54.7168 421.46L69.5664 395.768L216.771 392.474Z" stroke="#1B1919"/>
<path d="M249.053 414.872L230.33 400.379L114.761 422.778L105.076 453.74L127.028 509.737L152.853 529.5L127.028 441.882L170.286 432.001L193.529 426.73L249.053 414.872Z" stroke="#1B1919"/>
<path d="M518.929 202.087L455.657 220.532L494.395 262.035L515.055 254.13L538.298 246.225L557.022 239.637L567.998 228.438L578.328 212.627L581.556 204.722L578.328 184.299L572.517 161.901L566.706 146.09L561.541 133.573L554.439 117.763L546.046 101.952L536.361 84.165L523.449 65.7192L509.245 47.9321L495.686 34.0978L478.254 20.2634L461.468 9.72291L447.264 3.13512L438.225 0.5H434.351L449.2 18.287L465.987 42.0031L476.963 61.1077L482.774 76.2596L483.419 84.165L461.468 69.0131L447.264 50.5672L429.186 24.2161V75.6009L435.642 94.0467L455.657 133.573L476.317 161.901L494.395 181.006L518.929 202.087Z" stroke="#1B1919"/>
<path d="M608.027 260.059L614.483 235.684L584.784 275.211L508.599 294.974L398.841 182.323H385.283L396.904 142.796H379.472L367.205 181.006H307.806V408.285H353.646L472.443 327.255L508.599 315.397L593.823 287.069L608.027 260.059Z" stroke="#1B1919"/>
<path d="M437.579 364.805L467.924 343.724L557.022 327.913L602.862 322.643L559.604 348.336L437.579 364.805Z" stroke="#1B1919"/>
<path d="M398.195 392.474L420.147 376.663L553.794 377.322L598.988 437.271L608.027 462.963V474.163L584.784 445.176L575.745 441.882L567.998 435.295L560.25 421.46L545.4 395.768L398.195 392.474Z" stroke="#1B1919"/>
<path d="M365.913 414.872L384.637 400.379L500.206 422.778L509.89 453.74L487.939 509.737L462.113 529.5L487.939 441.882L444.681 432.001L421.438 426.73L365.913 414.872Z" stroke="#1B1919"/>
<path d="M909.683 441.5C880.883 441.5 856.35 435.233 836.083 422.7C815.817 410.033 800.283 392.433 789.483 369.9C778.817 347.367 773.483 321.233 773.483 291.5C773.483 261.767 778.817 235.633 789.483 213.1C800.283 190.567 815.817 173.033 836.083 160.5C856.35 147.833 880.883 141.5 909.683 141.5C942.883 141.5 970.35 149.9 992.083 166.7C1013.95 183.5 1029.15 206.1 1037.68 234.5L995.283 245.9C989.683 225.767 979.683 209.967 965.283 198.5C951.017 187.033 932.483 181.3 909.683 181.3C889.283 181.3 872.283 185.9 858.683 195.1C845.083 204.3 834.817 217.167 827.883 233.7C821.083 250.233 817.683 269.5 817.683 291.5C817.55 313.5 820.883 332.767 827.683 349.3C834.617 365.833 844.883 378.7 858.483 387.9C872.217 397.1 889.283 401.7 909.683 401.7C932.483 401.7 951.017 395.967 965.283 384.5C979.683 372.9 989.683 357.1 995.283 337.1L1037.68 348.5C1029.15 376.9 1013.95 399.5 992.083 416.3C970.35 433.1 942.883 441.5 909.683 441.5ZM1073.67 435.5V219.5H1110.87V271.9L1105.67 265.1C1108.34 258.167 1111.8 251.833 1116.07 246.1C1120.34 240.233 1125.27 235.433 1130.87 231.7C1136.34 227.7 1142.4 224.633 1149.07 222.5C1155.87 220.233 1162.8 218.9 1169.87 218.5C1176.94 217.967 1183.74 218.3 1190.27 219.5V258.7C1183.2 256.833 1175.34 256.3 1166.67 257.1C1158.14 257.9 1150.27 260.633 1143.07 265.3C1136.27 269.7 1130.87 275.033 1126.87 281.3C1123 287.567 1120.2 294.567 1118.47 302.3C1116.74 309.9 1115.87 317.967 1115.87 326.5V435.5H1073.67ZM1275.11 441.5C1259.11 441.5 1245.71 438.567 1234.91 432.7C1224.11 426.7 1215.91 418.833 1210.31 409.1C1204.84 399.233 1202.11 388.433 1202.11 376.7C1202.11 365.767 1204.04 356.167 1207.91 347.9C1211.78 339.633 1217.51 332.633 1225.11 326.9C1232.71 321.033 1242.04 316.3 1253.11 312.7C1262.71 309.9 1273.58 307.433 1285.71 305.3C1297.84 303.167 1310.58 301.167 1323.91 299.3C1337.38 297.433 1350.71 295.567 1363.91 293.7L1348.71 302.1C1348.98 285.167 1345.38 272.633 1337.91 264.5C1330.58 256.233 1317.91 252.1 1299.91 252.1C1288.58 252.1 1278.18 254.767 1268.71 260.1C1259.24 265.3 1252.64 273.967 1248.91 286.1L1209.91 274.1C1215.24 255.567 1225.38 240.833 1240.31 229.9C1255.38 218.967 1275.38 213.5 1300.31 213.5C1319.64 213.5 1336.44 216.833 1350.71 223.5C1365.11 230.033 1375.64 240.433 1382.31 254.7C1385.78 261.767 1387.91 269.233 1388.71 277.1C1389.51 284.967 1389.91 293.433 1389.91 302.5V435.5H1352.91V386.1L1360.11 392.5C1351.18 409.033 1339.78 421.367 1325.91 429.5C1312.18 437.5 1295.24 441.5 1275.11 441.5ZM1282.51 407.3C1294.38 407.3 1304.58 405.233 1313.11 401.1C1321.64 396.833 1328.51 391.433 1333.71 384.9C1338.91 378.367 1342.31 371.567 1343.91 364.5C1346.18 358.1 1347.44 350.9 1347.71 342.9C1348.11 334.9 1348.31 328.5 1348.31 323.7L1361.91 328.7C1348.71 330.7 1336.71 332.5 1325.91 334.1C1315.11 335.7 1305.31 337.3 1296.51 338.9C1287.84 340.367 1280.11 342.167 1273.31 344.3C1267.58 346.3 1262.44 348.7 1257.91 351.5C1253.51 354.3 1249.98 357.7 1247.31 361.7C1244.78 365.7 1243.51 370.567 1243.51 376.3C1243.51 381.9 1244.91 387.1 1247.71 391.9C1250.51 396.567 1254.78 400.3 1260.51 403.1C1266.24 405.9 1273.58 407.3 1282.51 407.3ZM1535.24 441.5C1514.58 441.5 1497.24 436.5 1483.24 426.5C1469.24 416.367 1458.64 402.7 1451.44 385.5C1444.24 368.3 1440.64 348.9 1440.64 327.3C1440.64 305.7 1444.18 286.3 1451.24 269.1C1458.44 251.9 1468.98 238.367 1482.84 228.5C1496.84 218.5 1514.04 213.5 1534.44 213.5C1554.71 213.5 1572.18 218.5 1586.84 228.5C1601.64 238.367 1613.04 251.9 1621.04 269.1C1629.04 286.167 1633.04 305.567 1633.04 327.3C1633.04 348.9 1629.04 368.367 1621.04 385.7C1613.18 402.9 1601.91 416.5 1587.24 426.5C1572.71 436.5 1555.38 441.5 1535.24 441.5ZM1433.64 435.5V147.5H1475.64V280.1H1470.84V435.5H1433.64ZM1529.44 403.7C1542.78 403.7 1553.78 400.3 1562.44 393.5C1571.24 386.7 1577.78 377.567 1582.04 366.1C1586.44 354.5 1588.64 341.567 1588.64 327.3C1588.64 313.167 1586.44 300.367 1582.04 288.9C1577.78 277.433 1571.18 268.3 1562.24 261.5C1553.31 254.7 1541.91 251.3 1528.04 251.3C1514.98 251.3 1504.18 254.5 1495.64 260.9C1487.24 267.3 1480.98 276.233 1476.84 287.7C1472.84 299.167 1470.84 312.367 1470.84 327.3C1470.84 342.233 1472.84 355.433 1476.84 366.9C1480.84 378.367 1487.18 387.367 1495.84 393.9C1504.51 400.433 1515.71 403.7 1529.44 403.7ZM1861.48 441.5C1832.68 441.5 1808.15 435.233 1787.88 422.7C1767.61 410.033 1752.08 392.433 1741.28 369.9C1730.61 347.367 1725.28 321.233 1725.28 291.5C1725.28 261.767 1730.61 235.633 1741.28 213.1C1752.08 190.567 1767.61 173.033 1787.88 160.5C1808.15 147.833 1832.68 141.5 1861.48 141.5C1894.68 141.5 1922.15 149.9 1943.88 166.7C1965.75 183.5 1980.95 206.1 1989.48 234.5L1947.08 245.9C1941.48 225.767 1931.48 209.967 1917.08 198.5C1902.81 187.033 1884.28 181.3 1861.48 181.3C1841.08 181.3 1824.08 185.9 1810.48 195.1C1796.88 204.3 1786.61 217.167 1779.68 233.7C1772.88 250.233 1769.48 269.5 1769.48 291.5C1769.35 313.5 1772.68 332.767 1779.48 349.3C1786.41 365.833 1796.68 378.7 1810.28 387.9C1824.01 397.1 1841.08 401.7 1861.48 401.7C1884.28 401.7 1902.81 395.967 1917.08 384.5C1931.48 372.9 1941.48 357.1 1947.08 337.1L1989.48 348.5C1980.95 376.9 1965.75 399.5 1943.88 416.3C1922.15 433.1 1894.68 441.5 1861.48 441.5ZM2029.47 435.5V141.5H2071.27V435.5H2029.47ZM2127.33 184.1V143.5H2169.13V184.1H2127.33ZM2127.33 435.5V219.5H2169.13V435.5H2127.33ZM2316.99 441.5C2295.52 441.5 2276.65 436.833 2260.39 427.5C2244.25 418.033 2231.65 404.9 2222.59 388.1C2213.65 371.167 2209.19 351.567 2209.19 329.3C2209.19 305.7 2213.59 285.233 2222.39 267.9C2231.32 250.567 2243.72 237.167 2259.59 227.7C2275.45 218.233 2293.92 213.5 2314.99 213.5C2336.99 213.5 2355.72 218.633 2371.19 228.9C2386.65 239.033 2398.19 253.5 2405.79 272.3C2413.52 291.1 2416.59 313.433 2414.99 339.3H2373.19V324.1C2372.92 299.033 2368.12 280.5 2358.79 268.5C2349.59 256.5 2335.52 250.5 2316.59 250.5C2295.65 250.5 2279.92 257.1 2269.39 270.3C2258.85 283.5 2253.59 302.567 2253.59 327.5C2253.59 351.233 2258.85 369.633 2269.39 382.7C2279.92 395.633 2295.12 402.1 2314.99 402.1C2328.05 402.1 2339.32 399.167 2348.79 393.3C2358.39 387.3 2365.85 378.767 2371.19 367.7L2412.19 380.7C2403.79 400.033 2391.05 415.033 2373.99 425.7C2356.92 436.233 2337.92 441.5 2316.99 441.5ZM2239.99 339.3V306.7H2394.19V339.3H2239.99ZM2597.6 435.5V329.3C2597.6 320.9 2596.87 312.3 2595.4 303.5C2594.07 294.567 2591.4 286.3 2587.4 278.7C2583.53 271.1 2578 264.967 2570.8 260.3C2563.73 255.633 2554.47 253.3 2543 253.3C2535.53 253.3 2528.47 254.567 2521.8 257.1C2515.13 259.5 2509.27 263.433 2504.2 268.9C2499.27 274.367 2495.33 281.567 2492.4 290.5C2489.6 299.433 2488.2 310.3 2488.2 323.1L2462.2 313.3C2462.2 293.7 2465.87 276.433 2473.2 261.5C2480.53 246.433 2491.07 234.7 2504.8 226.3C2518.53 217.9 2535.13 213.7 2554.6 213.7C2569.53 213.7 2582.07 216.1 2592.2 220.9C2602.33 225.7 2610.53 232.033 2616.8 239.9C2623.2 247.633 2628.07 256.1 2631.4 265.3C2634.73 274.5 2637 283.5 2638.2 292.3C2639.4 301.1 2640 308.833 2640 315.5V435.5H2597.6ZM2445.8 435.5V219.5H2483.2V281.9H2488.2V435.5H2445.8ZM2807.69 435.5C2794.09 438.167 2780.76 439.3 2767.69 438.9C2754.63 438.5 2742.96 435.967 2732.69 431.3C2722.43 426.633 2714.69 419.3 2709.49 409.3C2704.83 400.367 2702.29 391.3 2701.89 382.1C2701.63 372.767 2701.49 362.233 2701.49 350.5V159.5H2743.49V348.5C2743.49 357.167 2743.56 364.7 2743.69 371.1C2743.96 377.5 2745.36 382.9 2747.89 387.3C2752.69 395.567 2760.29 400.3 2770.69 401.5C2781.23 402.567 2793.56 402.1 2807.69 400.1V435.5ZM2660.09 253.1V219.5H2807.69V253.1H2660.09Z" fill="#1B1919"/>
</svg>
